<?xml version="1.0" encoding="iso-8859-1"?>
<!-- Generator: Adobe Illustrator 19.0.0, SVG Export Plug-In . SVG Version: 6.00 Build 0)  -->
<svg version="1.1" id="Layer_1" xmlns="http://www.w3.org/2000/svg" xmlns:xlink="http://www.w3.org/1999/xlink" x="0px" y="0px"
	 viewBox="0 0 512 512" style="enable-background:new 0 0 512 512;" xml:space="preserve">
<g>
	<path style="fill:#2F3442" d="M18.072,193.005l12.864,49.352c2.808,10.832,5.416,20.88,7.2,30.912h0.592
		c2.192-9.824,5.416-20.264,8.616-30.704l15.856-49.56h14.848l15.056,48.552c3.608,11.632,6.4,21.864,8.616,31.712h0.592
		c1.904-10.632,4.384-21.144,7.448-31.504l13.824-48.76h17.48l-31.28,97.128h-16.08l-14.872-46.36
		c-3.416-10.48-6.296-21.12-8.616-31.896h-0.408c-2.304,10.856-5.248,21.568-8.8,32.08l-15.696,46.16h-16L0,193.005H18.072z"/>
	<path style="fill:#2F3442;" d="M168.064,193.005l12.864,49.352c2.808,10.832,5.416,20.88,7.2,30.912h0.592
		c2.192-9.824,5.416-20.264,8.616-30.704l15.856-49.56h14.832l15.056,48.552c3.608,11.632,6.4,21.864,8.616,31.712h0.592
		c1.904-10.632,4.384-21.144,7.448-31.504l13.864-48.76h17.48l-31.28,97.104h-16.088l-14.872-46.36
		c-3.416-10.48-6.296-21.12-8.616-31.896h-0.408c-2.304,10.856-5.248,21.568-8.8,32.08l-15.672,46.152h-16l-29.376-97.096h18.096
		L168.064,193.005L168.064,193.005z"/>
	<path style="fill:#2F3442;" d="M318.112,193.005l12.8,49.352c2.808,10.832,5.416,20.88,7.2,30.912h0.592
		c2.192-9.824,5.456-20.264,8.656-30.704l15.84-49.56h14.872l15.056,48.552c3.608,11.632,6.4,21.864,8.616,31.712h0.592
		c1.888-10.632,4.36-21.144,7.408-31.504l13.864-48.76h17.432l-31.28,97.104h-16l-14.872-46.36
		c-3.416-10.48-6.296-21.12-8.616-31.896h-0.408c-2.328,10.856-5.288,21.568-8.864,32.08l-15.632,46.152h-16.056L300,192.989h18.096
		L318.112,193.005z"/>
</g>
<path d="M366.44,369.029c-41.768-0.072-80.984-20.08-105.56-53.848l11.608-8.448c37.608,51.864,110.144,63.416,162.008,25.808
	s63.416-110.144,25.808-162.008s-110.144-63.416-162.008-25.808c-14.28,10.352-26.008,23.832-34.296,39.4l-12.656-6.768
	c33.84-63.576,112.808-87.672,176.384-53.84s87.672,112.808,53.84,176.384C458.912,342.445,414.64,369.029,366.44,369.029z"/>
<polygon points="501.864,403.797 440.72,342.525 450.872,332.389 512,393.661 "/>
</svg>
